<?xml version="1.0" standalone="no"?>
<!DOCTYPE svg PUBLIC "-//W3C//DTD SVG 20010904//EN"
 "http://www.w3.org/TR/2001/REC-SVG-20010904/DTD/svg10.dtd">
<svg version="1.0" xmlns="http://www.w3.org/2000/svg"
 width="700.000000pt" height="700.000000pt" viewBox="0 0 700.000000 700.000000"
 preserveAspectRatio="xMidYMid meet">
<metadata>
Created by potrace 1.11, written by Peter Selinger 2001-2013
</metadata>
<g transform="translate(0.000000,700.000000) scale(0.100000,-0.100000)"
fill="#000000" stroke="none">
<path d="M6820 6625 c-37 -9 -216 -79 -295 -114 -27 -13 -418 -170 -475 -191
-65 -25 -821 -329 -845 -340 -11 -5 -171 -70 -355 -144 -184 -73 -578 -232
-875 -351 -297 -120 -623 -251 -725 -291 -201 -81 -234 -103 -247 -169 -5 -22
-8 -507 -7 -1078 0 -703 -3 -1033 -9 -1020 -44 78 -217 263 -335 357 -206 163
-510 300 -737 330 -184 25 -463 26 -535 2 -8 -3 -33 -7 -55 -10 -100 -13 -281
-74 -411 -139 -572 -283 -919 -852 -909 -1490 6 -368 91 -618 333 -973 35 -53
231 -247 302 -301 134 -101 283 -183 425 -235 44 -16 87 -31 95 -33 8 -2 49
-13 90 -24 70 -18 97 -23 240 -40 62 -8 259 -6 329 3 417 53 768 236 1046 546
199 222 351 545 389 830 3 19 8 55 12 80 4 25 8 726 8 1559 l1 1514 85 34 c47
18 94 38 105 43 23 11 677 274 745 300 25 9 198 79 385 154 187 76 502 203
700 282 198 79 369 149 380 154 11 5 135 54 275 110 140 55 264 105 275 110
11 5 126 52 255 104 l235 94 3 -838 c1 -461 1 -1220 0 -1686 l-3 -847 -45 64
c-57 83 -234 260 -330 330 -388 285 -847 386 -1318 290 -233 -48 -464 -155
-667 -310 -87 -66 -251 -236 -316 -327 -258 -360 -362 -791 -294 -1219 11 -73
13 -79 29 -145 126 -497 490 -918 961 -1110 547 -224 1158 -142 1628 217 73
56 243 223 277 273 13 19 27 37 31 40 30 23 174 276 207 366 35 94 54 151 57
164 2 8 8 35 15 60 7 25 14 54 15 65 2 11 10 56 17 100 10 65 13 530 13 2425
l0 2346 -25 31 c-22 28 -44 42 -90 56 -8 2 -35 -1 -60 -8z"/>
</g>
</svg>
